<svg width="49" height="84" viewBox="0 0 49 84" fill="none" xmlns="http://www.w3.org/2000/svg">
<path fill-rule="evenodd" clip-rule="evenodd" d="M23.4704 1.13155C23.0908 1.75415 22.7254 2.35929 22.6585 2.47642C22.5916 2.59355 22.2111 3.22652 21.8131 3.88305C21.0407 5.15679 20.9534 5.3026 20.8882 5.42773C20.8335 5.53246 20.943 5.66587 21.9949 6.77655C23.2971 8.15148 23.2937 8.14708 23.2924 8.4404C23.2887 9.26511 22.8701 10.3282 22.1879 11.2451C21.7486 11.8354 20.4159 13.227 19.7039 13.8387C19.5611 13.9614 19.2796 14.2124 19.0785 14.3964C18.8773 14.5806 18.4949 14.9232 18.2288 15.1578C17.9626 15.3923 17.7126 15.6138 17.6732 15.6499C17.6339 15.686 17.3797 15.9073 17.1083 16.1416C16.6013 16.5793 15.3248 17.714 15.266 17.7789C15.2479 17.799 15.011 18.007 14.7396 18.2414C14.4682 18.4756 14.2129 18.6971 14.1723 18.7335C9.94478 22.5238 7.57073 25.1841 5.84237 28.0679C5.32927 28.9239 5.23267 29.1755 5.49541 28.9712C6.83364 27.9307 8.48923 27.0593 10.2303 26.4791C12.405 25.7544 14.9803 25.4025 17.4703 25.49C20.4563 25.5949 22.959 25.9423 28.6233 27.0381C29.3652 27.1817 30.2831 27.3578 30.6631 27.4295C31.0431 27.5012 31.5021 27.5888 31.683 27.6241C33.817 28.0404 36.2971 28.3428 38.4604 28.4506C39.7583 28.5153 42.7956 28.2839 42.9713 28.107C43.0403 28.0373 42.4576 27.0761 41.6051 25.8538C41.2857 25.3957 40.2111 24.0902 39.5798 23.393C38.6611 22.3787 37.7832 21.5122 36.1205 19.9788C35.7247 19.6138 32.0248 16.4517 31.0908 15.6802C30.7651 15.4111 30.4838 15.1761 30.4657 15.1578C30.4476 15.1396 30.1665 14.9033 29.841 14.6327C29.5155 14.3621 29.1454 14.049 29.0185 13.9368C28.8917 13.8248 28.6102 13.5778 28.393 13.388C27.5793 12.6767 26.4877 11.564 26.1089 11.0597C25.6544 10.4547 25.4536 10.0822 25.3026 9.56447C25.1764 9.13151 25.0693 8.26881 25.1282 8.15915C25.1505 8.11749 25.539 7.69181 25.9913 7.21331C26.4437 6.73475 26.8434 6.30907 26.8796 6.2674C26.9158 6.22574 27.0887 6.04233 27.2638 5.85984L27.5823 5.52807L26.0197 2.94429C25.1602 1.52323 24.41 0.279474 24.3523 0.180454C24.2948 0.0814341 24.2281 0.000262536 24.2042 5.70671e-08C24.1803 -0.000196802 23.8501 0.508947 23.4704 1.13155ZM14.9699 27.4725C13.6084 27.5563 12.0925 27.7885 11.1206 28.0621C10.378 28.2712 9.49813 28.5649 9.17953 28.7099C8.99858 28.7923 8.62616 28.9616 8.3519 29.0862C7.62284 29.4173 6.38489 30.1395 6.32824 30.2667C6.31613 30.2938 6.27928 30.3159 6.24625 30.3159C6.15045 30.3159 5.00948 31.2193 4.38557 31.7891L3.81436 32.3108L3.6217 32.9374C3.19249 34.3331 2.97357 35.8765 2.91613 37.9114C2.8935 38.7144 2.88988 39.3714 2.9081 39.3714C2.92633 39.3714 3.40667 39.1489 3.97544 38.877C4.54421 38.605 5.23715 38.2926 5.51535 38.1827C5.79355 38.0728 6.10998 37.9429 6.21855 37.8941C6.70158 37.6768 8.53943 37.0672 9.49748 36.8064C10.1098 36.6398 10.093 36.6519 10.7591 35.8901C10.8678 35.7657 11.3836 35.1767 11.9053 34.5812C12.4271 33.9857 13.0192 33.3076 13.2211 33.0745C14.3583 31.7609 15.1493 30.9002 15.2005 30.9207C15.2262 30.9309 15.6438 31.3951 16.1284 31.9521C16.6131 32.5092 17.5325 33.5595 18.1716 34.2862L19.3335 35.6073L20.2772 35.6847C22.0636 35.8311 24.8754 36.3201 27.3731 36.9187C28.0185 37.0734 28.3802 37.1524 30.3341 37.5657C31.5884 37.831 33.7891 38.1813 34.9072 38.2936C36.363 38.4398 39.0018 38.4863 40.4752 38.3917C42.056 38.2901 44.8156 37.9389 45.4516 37.7584C45.5515 37.7301 45.5532 37.5211 45.4662 36.0576C45.3351 33.8539 44.9403 32.0859 44.2236 30.4927C44.0124 30.0234 43.9771 30.0034 43.5598 30.1167C43.0767 30.2479 41.439 30.4467 40.2818 30.5145C37.3957 30.6838 34.2602 30.3153 27.8995 29.0592C22.4152 27.9762 20.2289 27.6452 17.569 27.4954C16.477 27.4339 15.7079 27.4271 14.9699 27.4725ZM15.0576 33.5246C15.0456 33.5571 14.8704 33.7711 14.6683 34.0003C14.4663 34.2296 14.0813 34.6661 13.8129 34.9704C12.6471 36.2922 12.4366 36.5473 12.4366 36.6388C12.4366 36.6921 12.4589 36.7455 12.486 36.7576C12.5131 36.7696 12.7278 37.0005 12.963 37.2707C13.1982 37.5408 13.5278 37.91 13.6954 38.0909C13.863 38.2719 14.126 38.5676 14.2799 38.748C14.7796 39.3344 15.1451 39.7069 15.2005 39.6866C15.2888 39.6542 17.8968 36.6524 17.8802 36.6022C17.841 36.4831 15.2236 33.473 15.1563 33.4696C15.1141 33.4674 15.0697 33.4922 15.0576 33.5246Z" fill="#F8C000"/>
<path d="M22.542 42.5316C23.3568 42.2846 23.7837 42.1984 24.7407 42.0878C25.259 42.0279 25.9742 42.0106 27.0107 42.0327C28.36 42.0615 30.7963 42.2152 31.0574 42.2879C31.1117 42.303 31.3486 42.3351 31.5838 42.3592C31.8191 42.3833 32.0707 42.415 32.1431 42.4296C32.2155 42.4442 32.7781 42.531 33.3933 42.6223C34.0085 42.7137 34.7488 42.8311 35.0383 42.8834C38.2791 43.4683 40.9922 43.434 43.2811 42.7792C43.6528 42.6729 44.0081 42.587 44.0707 42.5883C44.1333 42.5897 44.4746 42.8628 44.8293 43.1953L45.4741 43.7999L45.3019 44.3905C44.8616 45.9004 44.0108 47.1934 42.4652 48.7018C41.5482 49.5966 40.208 50.5687 38.9995 51.2157C38.681 51.3861 38.4313 51.5363 38.4444 51.5494C38.4575 51.5626 38.7594 51.6626 39.1152 51.7719C40.139 52.0861 41.5629 52.4177 42.2434 52.5003C43.1993 52.6163 45.1212 52.5192 45.6105 52.33C45.7242 52.2861 45.7731 52.3253 46.1913 52.7963C46.318 52.939 46.5472 53.1943 46.7006 53.3636L46.9797 53.6713L46.8083 54.1492C46.5751 54.8 45.9877 55.9559 45.5961 56.5346C44.8811 57.5913 43.9246 58.5945 42.8685 59.3954C42.5427 59.6424 42.2453 59.8694 42.2074 59.8999C41.9465 60.1101 40.3758 60.9762 39.6871 61.2898C37.289 62.3817 34.229 63.093 31.7154 63.1427L30.9587 63.1577L30.9406 62.1227C30.9267 61.3278 30.9419 61.0822 31.0064 61.0637C31.0526 61.0504 31.5823 61.0056 32.1837 60.9642C33.9896 60.8397 36.1258 60.3455 37.9151 59.6382C38.8288 59.2769 39.8079 58.7593 40.7249 58.1526C41.7253 57.4908 43.0918 56.153 43.6896 55.2505L44.1024 54.6271L42.7616 54.5859C42.0242 54.5632 41.258 54.5108 41.059 54.4694C40.8599 54.428 40.623 54.3809 40.5326 54.3647C40.2017 54.3055 38.6338 53.8608 37.7636 53.5794C36.2815 53.1 34.9928 52.824 34.2323 52.823L33.9526 52.8226V51.7498V50.6769L34.6271 50.6357C35.2152 50.5996 35.8725 50.4787 36.1898 50.3482C36.2441 50.3258 36.3033 50.3038 36.3214 50.2991C36.7667 50.1845 37.7904 49.6911 38.5124 49.243C39.9108 48.3752 41.6945 46.6232 42.4371 45.3881L42.5869 45.1389L42.4315 45.1733C40.9722 45.4964 38.7662 45.6248 37.3223 45.4706C36.2828 45.3596 34.5029 45.0918 33.2288 44.8547C31.2135 44.4797 27.4415 44.1739 25.8083 44.2531C23.584 44.3611 21.8087 45.0303 20.7216 46.1707C20.2496 46.6657 20.0307 47.0164 19.7857 47.6691C19.6151 48.1239 19.5837 48.3095 19.5578 49.0193C19.5241 49.9434 19.6059 50.3937 19.9354 51.0988C20.2063 51.6782 20.4901 52.0676 21.0126 52.5771C22.2059 53.7405 24.2598 54.5287 26.0977 54.5287H26.6479L26.6648 50.3126L26.6818 46.0966H27.7345H28.7873L28.8041 54.6452L28.8207 63.1938L27.7513 63.1757L26.6818 63.1577L26.6647 59.8705L26.6477 56.5832L25.7764 56.5406C24.6911 56.4876 23.8553 56.3541 22.9641 56.0914C19.9402 55.2003 17.7911 53.1814 17.1966 50.6735L17.0838 50.1978H15.4553C13.6471 50.1978 13.8125 50.154 13.7196 50.6571C13.6442 51.0652 13.4103 51.7286 13.179 52.1902C12.398 53.7491 11.0775 54.9496 9.2738 55.7404C8.52592 56.0684 7.11847 56.468 6.56437 56.5098L6.29406 56.5301L6.17187 56.1364C5.85235 55.1067 5.73299 54.587 5.81063 54.5636C5.8538 54.5506 6.17036 54.4913 6.51416 54.4318C7.81371 54.2071 8.93822 53.6917 9.8127 52.9198C11.4085 51.5116 11.9034 49.0804 10.9796 47.1883C10.1974 45.5864 8.17389 44.5113 5.75747 44.4137L5.36267 44.3978L5.32977 53.7777L5.29687 63.1577L4.22763 63.1757L3.15838 63.1938V53.8666V44.5394L2.78003 44.5827C2.2283 44.6458 1.41015 44.813 0.929617 44.9608C0.69899 45.0317 0.487575 45.0652 0.459808 45.0354C0.400588 44.9716 0 43.3046 0 43.1219C0 43.0352 0.0847499 42.9667 0.279648 42.8958C1.3635 42.5021 3.51798 42.1922 5.17146 42.1922C7.29718 42.1922 9.31933 42.7378 10.8476 43.7238C11.4237 44.0954 12.294 44.9163 12.6674 45.4404C13.1623 46.1348 13.6074 47.1398 13.7228 47.8232C13.8107 48.3438 13.6421 48.2991 15.4438 48.2795L17.06 48.262L17.2041 47.6714C17.813 45.1759 19.6478 43.4091 22.542 42.5316Z" fill="#1B1400"/>
<path d="M16.842 60.2337C18.0791 59.5885 19.3692 58.2987 20.4309 56.6455C20.5756 56.4203 20.721 56.2357 20.7541 56.2354C20.8818 56.2342 22.5031 57.3225 22.5033 57.4095C22.5035 57.5458 21.768 58.6671 21.1862 59.4174C19.7021 61.3309 17.9076 62.4869 15.743 62.9236C15.0265 63.0682 13.3383 63.2113 12.7322 63.1788L12.3374 63.1577V62.1078V61.0579L13.4231 61.0185C14.9802 60.962 15.8114 60.7712 16.842 60.2337Z" fill="#1B1400"/>
<path d="M6.90376 64.5003L7.84345 62.9595C8.3603 62.1121 8.81498 61.4188 8.85387 61.4188C8.89269 61.4188 8.99468 61.5443 9.08042 61.6977C9.16615 61.851 9.57128 62.5335 9.98082 63.2141C10.3903 63.8947 10.7253 64.4672 10.7253 64.4862C10.7253 64.5053 10.4548 64.829 10.1243 65.2056L9.52318 65.8902L9.56516 66.291C9.6534 67.1327 10.1177 68.6791 10.5956 69.7231C10.6774 69.9016 10.8215 70.2254 10.9158 70.4425C11.0101 70.6597 11.6387 71.8704 12.3128 73.1329C14.0995 76.48 14.748 77.9279 15.2681 79.7318C15.6346 81.0026 15.8882 82.2975 15.9645 83.2868L16.0083 83.8543L14.943 83.8739C13.9223 83.8927 13.8767 83.888 13.8516 83.7623C13.8372 83.6901 13.7915 83.3358 13.75 82.9749C13.5033 80.8284 12.7117 78.5266 11.3115 75.8844C11.1596 75.5976 10.5505 74.4109 9.95818 73.2472C9.36585 72.0835 8.86933 71.1238 8.85479 71.1145C8.83038 71.0989 6.94462 74.7791 5.91223 76.8573C5.353 77.9831 4.82634 79.3015 4.48405 80.4327C4.24862 81.2107 4.11228 81.8751 3.87823 83.385L3.80447 83.8607H2.72351H1.64249L1.67289 83.7131C1.68967 83.6319 1.72198 83.344 1.74468 83.0733C1.80455 82.3611 2.07697 80.9222 2.3099 80.0876C2.42077 79.6906 2.52217 79.3215 2.53533 79.2673C2.59237 79.0323 3.25465 77.3381 3.53574 76.7082C3.92883 75.8272 5.38748 72.9827 5.65561 72.5741C5.85452 72.2711 6.82882 70.3167 7.11024 69.6563C7.52445 68.6842 7.80285 67.8244 7.99104 66.9355C8.08349 66.4987 8.15915 66.0873 8.15915 66.0214C8.15915 65.9554 7.87668 65.5862 7.53149 65.2009L6.90376 64.5003Z" fill="#1B1400"/>
<path d="M19.9373 71.8583V68.5727V65.2871L21.0065 65.3051L22.0758 65.3231L22.0928 68.5549C22.1089 71.6049 22.1165 71.7867 22.2272 71.7867C22.2917 71.7867 22.9214 71.6408 23.6266 71.4625C25.093 71.0916 25.7177 70.9993 26.7575 70.9993C27.6764 70.9993 28.2199 71.0739 29.6683 71.3987C30.2979 71.5399 30.838 71.6554 30.8688 71.6554C30.8994 71.6554 30.9323 70.2306 30.9416 68.4893L30.9587 65.3231H32.0284H33.0981V74.5755V83.8279H32.0284H30.9587L30.9419 78.8395L30.925 73.851L29.8891 73.6055C27.9 73.1342 27.5712 73.0869 26.4844 73.1164C25.5545 73.1416 25.4231 73.1624 24.2143 73.4759C23.5086 73.659 22.7461 73.8449 22.5199 73.8889L22.1087 73.9692V78.915V83.8607H21.023H19.9373V78.9431C19.9373 76.1233 19.9122 74.01 19.8785 73.9892C19.8461 73.9693 19.5278 73.8947 19.1711 73.8235C18.8144 73.7523 18.4207 73.664 18.2962 73.6272C17.9337 73.5202 16.9322 73.3478 16.2196 73.2696L15.5616 73.1975V72.1804V71.1633L16.1166 71.1786C16.7214 71.1952 17.8355 71.3768 18.8187 71.6192C19.1625 71.7039 19.5549 71.7923 19.6905 71.8157L19.9373 71.8583Z" fill="#1B1400"/>
<path d="M37.4231 74.5874C37.432 69.4921 37.4394 65.3158 37.4396 65.3067C37.4398 65.2977 37.9137 65.2903 38.4928 65.2903H39.5456V73.5276C39.5456 80.9697 39.5556 81.7688 39.6494 81.8047C39.8533 81.8827 41.6156 81.6975 42.2763 81.5286C42.6382 81.436 43.2413 81.212 43.6167 81.0306C44.1962 80.7506 44.38 80.6201 44.8365 80.1646C45.2286 79.7734 45.4322 79.5068 45.5889 79.1794C46.3068 77.6793 46.1882 75.8783 45.2928 74.6826C44.5103 73.6375 43.0025 72.8415 41.2235 72.5345C40.8978 72.4783 40.6119 72.4126 40.5881 72.3883C40.5644 72.3642 40.6681 71.9168 40.8184 71.3941L41.0919 70.4438L41.388 70.4643C42.7227 70.5567 44.797 71.3124 45.8294 72.0824C47.1177 73.0433 47.9417 74.2321 48.2988 75.6449C48.4777 76.353 48.4768 77.8227 48.2969 78.6341C48.0402 79.7921 47.4759 80.7953 46.5963 81.6571C45.2993 82.9281 43.6752 83.6223 41.2748 83.9318C40.6735 84.0093 37.9358 83.9795 37.5716 83.8915L37.4071 83.8517L37.4231 74.5874Z" fill="#1B1400"/>
<path d="M7.56584 79.6611C7.58466 79.643 7.86227 79.3256 8.18258 78.9556C8.50296 78.5857 8.78418 78.2852 8.80761 78.2878C8.85308 78.293 10.6816 80.3571 10.8383 80.5801C10.926 80.7051 10.8716 80.7821 9.99161 81.7786C9.47442 82.3644 8.99659 82.9027 8.92973 82.9749C8.80906 83.1053 8.80702 83.1046 8.59889 82.8742C8.48368 82.7467 8.14895 82.3776 7.85503 82.0539C7.0803 81.201 6.71156 80.7604 6.71156 80.6877C6.71156 80.6389 7.36614 79.8521 7.56584 79.6611Z" fill="#1B1400"/>
</svg>
