<svg width="20" height="20" viewBox="0 0 20 20" fill="none" xmlns="http://www.w3.org/2000/svg">
<path d="M11.667 10.8333C11.667 8.99238 13.1594 7.5 15.0003 7.5V7.5C16.8413 7.5 18.3337 8.99238 18.3337 10.8333V17.42C18.3337 17.4642 18.2978 17.5 18.2537 17.5H11.747C11.7028 17.5 11.667 17.4642 11.667 17.42V10.8333Z" stroke="#1B1400" stroke-linecap="round"/>
<path d="M2.5 2.75C2.5 2.61193 2.61193 2.5 2.75 2.5H11.4167C11.5547 2.5 11.6667 2.61193 11.6667 2.75V17.25C11.6667 17.3881 11.5547 17.5 11.4167 17.5H2.75C2.61193 17.5 2.5 17.3881 2.5 17.25V2.75Z" stroke="#1B1400" stroke-linecap="round"/>
<rect x="5" y="5" width="1.66667" height="1.66667" rx="0.5" fill="#FFCC33"/>
<rect x="7.5" y="5" width="1.66667" height="1.66667" rx="0.5" fill="#FFCC33"/>
<rect x="5" y="9.16699" width="1.66667" height="1.66667" rx="0.5" fill="#FFCC33"/>
<rect x="7.5" y="9.16699" width="1.66667" height="1.66667" rx="0.5" fill="#FFCC33"/>
<rect x="5" y="13.333" width="1.66667" height="1.66667" rx="0.5" fill="#FFCC33"/>
<rect x="7.5" y="13.333" width="1.66667" height="1.66667" rx="0.5" fill="#FFCC33"/>
<rect x="14.167" y="10" width="1.66667" height="1.66667" rx="0.5" fill="#FFCC33"/>
<rect x="14.167" y="13.333" width="1.66667" height="1.66667" rx="0.5" fill="#FFCC33"/>
</svg>
