<svg width="20" height="20" viewBox="0 0 20 20" fill="none" xmlns="http://www.w3.org/2000/svg">
<g clip-path="url(#clip0_1_14472)">
<path d="M10 12.5C11.3807 12.5 12.5 11.3807 12.5 10C12.5 8.61929 11.3807 7.5 10 7.5C8.61929 7.5 7.5 8.61929 7.5 10C7.5 11.3807 8.61929 12.5 10 12.5Z" stroke="#1B1400" stroke-linecap="round"/>
<path d="M16.1663 12.4997C16.0554 12.751 16.0223 13.0298 16.0713 13.3002C16.1204 13.5705 16.2492 13.8199 16.4413 14.0163L16.4913 14.0663C16.6463 14.2211 16.7692 14.4049 16.8531 14.6073C16.937 14.8096 16.9802 15.0265 16.9802 15.2455C16.9802 15.4645 16.937 15.6814 16.8531 15.8837C16.7692 16.0861 16.6463 16.2699 16.4913 16.4247C16.3366 16.5796 16.1527 16.7026 15.9504 16.7864C15.7481 16.8703 15.5312 16.9135 15.3122 16.9135C15.0931 16.9135 14.8763 16.8703 14.6739 16.7864C14.4716 16.7026 14.2878 16.5796 14.133 16.4247L14.083 16.3747C13.8866 16.1826 13.6372 16.0537 13.3668 16.0047C13.0965 15.9557 12.8177 15.9887 12.5663 16.0997C12.3199 16.2053 12.1097 16.3807 11.9616 16.6043C11.8135 16.8279 11.7341 17.0899 11.733 17.358V17.4997C11.733 17.9417 11.5574 18.3656 11.2449 18.6782C10.9323 18.9907 10.5084 19.1663 10.0663 19.1663C9.62431 19.1663 9.20039 18.9907 8.88783 18.6782C8.57527 18.3656 8.39967 17.9417 8.39967 17.4997V17.4247C8.39322 17.1488 8.30394 16.8813 8.14343 16.6569C7.98293 16.4325 7.75862 16.2616 7.49967 16.1663C7.24833 16.0554 6.96951 16.0223 6.69918 16.0713C6.42886 16.1204 6.17941 16.2492 5.98301 16.4413L5.93301 16.4913C5.77822 16.6463 5.59441 16.7692 5.39208 16.8531C5.18974 16.937 4.97287 16.9802 4.75384 16.9802C4.53482 16.9802 4.31794 16.937 4.11561 16.8531C3.91328 16.7692 3.72946 16.6463 3.57467 16.4913C3.41971 16.3366 3.29678 16.1527 3.21291 15.9504C3.12903 15.7481 3.08586 15.5312 3.08586 15.3122C3.08586 15.0931 3.12903 14.8763 3.21291 14.6739C3.29678 14.4716 3.41971 14.2878 3.57467 14.133L3.62467 14.083C3.81679 13.8866 3.94566 13.6372 3.99468 13.3668C4.04369 13.0965 4.0106 12.8177 3.89967 12.5663C3.79404 12.3199 3.61864 12.1097 3.39506 11.9616C3.17149 11.8135 2.9095 11.7341 2.64134 11.733H2.49967C2.05765 11.733 1.63372 11.5574 1.32116 11.2449C1.0086 10.9323 0.833008 10.5084 0.833008 10.0663C0.833008 9.62431 1.0086 9.20039 1.32116 8.88783C1.63372 8.57527 2.05765 8.39967 2.49967 8.39967H2.57467C2.8505 8.39322 3.11801 8.30394 3.34242 8.14343C3.56684 7.98293 3.73777 7.75862 3.83301 7.49967C3.94394 7.24833 3.97703 6.96951 3.92801 6.69918C3.879 6.42886 3.75012 6.17941 3.55801 5.98301L3.50801 5.93301C3.35305 5.77822 3.23012 5.59441 3.14624 5.39208C3.06237 5.18974 3.0192 4.97287 3.0192 4.75384C3.0192 4.53482 3.06237 4.31794 3.14624 4.11561C3.23012 3.91328 3.35305 3.72946 3.50801 3.57467C3.6628 3.41971 3.84661 3.29678 4.04894 3.21291C4.25127 3.12903 4.46815 3.08586 4.68717 3.08586C4.9062 3.08586 5.12308 3.12903 5.32541 3.21291C5.52774 3.29678 5.71155 3.41971 5.86634 3.57467L5.91634 3.62467C6.11274 3.81679 6.36219 3.94566 6.63252 3.99468C6.90285 4.04369 7.18166 4.0106 7.43301 3.89967H7.49967C7.74615 3.79404 7.95636 3.61864 8.10442 3.39506C8.25248 3.17149 8.33194 2.9095 8.33301 2.64134V2.49967C8.33301 2.05765 8.5086 1.63372 8.82116 1.32116C9.13372 1.0086 9.55765 0.833008 9.99967 0.833008C10.4417 0.833008 10.8656 1.0086 11.1782 1.32116C11.4907 1.63372 11.6663 2.05765 11.6663 2.49967V2.57467C11.6674 2.84283 11.7469 3.10482 11.8949 3.3284C12.043 3.55197 12.2532 3.72737 12.4997 3.83301C12.751 3.94394 13.0298 3.97703 13.3002 3.92801C13.5705 3.879 13.8199 3.75012 14.0163 3.55801L14.0663 3.50801C14.2211 3.35305 14.4049 3.23012 14.6073 3.14624C14.8096 3.06237 15.0265 3.0192 15.2455 3.0192C15.4645 3.0192 15.6814 3.06237 15.8837 3.14624C16.0861 3.23012 16.2699 3.35305 16.4247 3.50801C16.5796 3.6628 16.7026 3.84661 16.7864 4.04894C16.8703 4.25127 16.9135 4.46815 16.9135 4.68717C16.9135 4.9062 16.8703 5.12308 16.7864 5.32541C16.7026 5.52774 16.5796 5.71155 16.4247 5.86634L16.3747 5.91634C16.1826 6.11274 16.0537 6.36219 16.0047 6.63252C15.9557 6.90285 15.9887 7.18166 16.0997 7.43301V7.49967C16.2053 7.74615 16.3807 7.95636 16.6043 8.10442C16.8279 8.25248 17.0899 8.33194 17.358 8.33301H17.4997C17.9417 8.33301 18.3656 8.5086 18.6782 8.82116C18.9907 9.13372 19.1663 9.55765 19.1663 9.99967C19.1663 10.4417 18.9907 10.8656 18.6782 11.1782C18.3656 11.4907 17.9417 11.6663 17.4997 11.6663H17.4247C17.1565 11.6674 16.8945 11.7469 16.671 11.8949C16.4474 12.043 16.272 12.2532 16.1663 12.4997V12.4997Z" stroke="#1B1400" stroke-linecap="round"/>
</g>
<defs>
<clipPath id="clip0_1_14472">
<rect width="20" height="20" fill="white"/>
</clipPath>
</defs>
</svg>
