<svg width="167" height="48" viewBox="0 0 167 48" fill="none" xmlns="http://www.w3.org/2000/svg">
<path d="M167 43.1884C167 45.8467 164.85 48 162.191 48H4.81526C2.1574 48 0 45.8467 0 43.1884V4.81784C0 2.1608 2.1574 0 4.81526 0H162.19C164.85 0 166.999 2.1608 166.999 4.81784L167 43.1884Z" fill="#1B1400"/>
<path d="M36.7985 23.7368C36.7621 19.6878 40.1139 17.7179 40.2671 17.6262C38.3689 14.8586 35.4267 14.4805 34.3928 14.4503C31.9217 14.1903 29.5247 15.929 28.2659 15.929C26.982 15.929 25.0435 14.4755 22.9543 14.5182C20.2659 14.5596 17.7508 16.1162 16.3714 18.5333C13.5247 23.4616 15.6478 30.7041 18.3752 34.6878C19.7395 36.6388 21.3337 38.8172 23.4204 38.7405C25.4619 38.6564 26.2244 37.439 28.688 37.439C31.1289 37.439 31.845 38.7405 33.9732 38.6915C36.1641 38.6564 37.5435 36.7317 38.8601 34.7632C40.4367 32.527 41.0699 30.3247 41.095 30.2116C41.0435 30.1941 36.84 28.5898 36.7985 23.7368Z" fill="white"/>
<path d="M32.7776 11.8283C33.8755 10.4552 34.6268 8.58713 34.4183 6.69141C32.8291 6.76176 30.8416 7.79065 29.6972 9.13362C28.6846 10.317 27.7801 12.2567 28.0137 14.0809C29.7989 14.214 31.6318 13.1801 32.7776 11.8283Z" fill="white"/>
<path d="M66.3428 38.4608H63.4898L61.927 33.55H56.4948L55.0062 38.4608H52.2285L57.6104 21.7422H60.9345L66.3428 38.4608ZM61.4559 31.4897L60.0426 27.1241C59.8931 26.6781 59.6129 25.6279 59.1996 23.9746H59.1494C58.9848 24.6857 58.7197 25.7359 58.3554 27.1241L56.9672 31.4897H61.4559Z" fill="white"/>
<path d="M80.1835 32.2831C80.1835 34.3334 79.6295 35.954 78.5215 37.1437C77.529 38.2027 76.2966 38.7316 74.8255 38.7316C73.2375 38.7316 72.0968 38.1613 71.4021 37.0206H71.3519V43.3711H68.6735V30.3723C68.6735 29.0834 68.6395 27.7605 68.5742 26.4037H70.9297L71.0792 28.3145H71.1295C72.0227 26.8748 73.3782 26.1562 75.1973 26.1562C76.6194 26.1562 77.8066 26.7178 78.7564 27.8422C79.7086 28.9678 80.1835 30.4477 80.1835 32.2831ZM77.4549 32.3811C77.4549 31.2078 77.1911 30.2404 76.6609 29.4791C76.0818 28.6851 75.3041 28.2882 74.3292 28.2882C73.6684 28.2882 73.0679 28.5093 72.5315 28.9452C71.9938 29.3849 71.6421 29.959 71.4775 30.6701C71.3946 31.0017 71.3531 31.2731 71.3531 31.4867V33.4967C71.3531 34.3736 71.622 35.1135 72.1596 35.7178C72.6973 36.3221 73.3958 36.6236 74.2551 36.6236C75.2639 36.6236 76.0491 36.2341 76.6107 35.4578C77.1735 34.6801 77.4549 33.655 77.4549 32.3811Z" fill="white"/>
<path d="M94.0494 32.2831C94.0494 34.3334 93.4954 35.954 92.3861 37.1437C91.3949 38.2027 90.1625 38.7316 88.6914 38.7316C87.1035 38.7316 85.9628 38.1613 85.2693 37.0206H85.219V43.3711H82.5407V30.3723C82.5407 29.0834 82.5067 27.7605 82.4414 26.4037H84.7969L84.9464 28.3145H84.9967C85.8886 26.8748 87.2442 26.1562 89.0645 26.1562C90.4854 26.1562 91.6726 26.7178 92.6248 27.8422C93.5733 28.9678 94.0494 30.4477 94.0494 32.2831ZM91.3208 32.3811C91.3208 31.2078 91.0557 30.2404 90.5256 29.4791C89.9464 28.6851 89.1713 28.2882 88.1952 28.2882C87.5331 28.2882 86.9339 28.5093 86.3962 28.9452C85.8585 29.3849 85.508 29.959 85.3434 30.6701C85.2618 31.0017 85.219 31.2731 85.219 31.4867V33.4967C85.219 34.3736 85.4879 35.1135 86.0231 35.7178C86.5608 36.3208 87.2593 36.6236 88.1211 36.6236C89.1299 36.6236 89.915 36.2341 90.4766 35.4578C91.0394 34.6801 91.3208 33.655 91.3208 32.3811Z" fill="white"/>
<path d="M109.552 33.7712C109.552 35.1933 109.058 36.3504 108.067 37.2436C106.977 38.2197 105.461 38.7071 103.513 38.7071C101.714 38.7071 100.271 38.3604 99.1797 37.6657L99.8003 35.4333C100.976 36.1443 102.266 36.5011 103.672 36.5011C104.681 36.5011 105.466 36.2725 106.03 35.8177C106.592 35.3629 106.872 34.7524 106.872 33.9911C106.872 33.3127 106.641 32.7411 106.177 32.2775C105.716 31.8139 104.946 31.383 103.871 30.9848C100.944 29.8931 99.4812 28.2938 99.4812 26.1908C99.4812 24.8164 99.9938 23.6896 101.02 22.8127C102.043 21.9345 103.407 21.4961 105.113 21.4961C106.634 21.4961 107.898 21.7612 108.907 22.2901L108.237 24.4735C107.295 23.9609 106.23 23.7046 105.038 23.7046C104.096 23.7046 103.359 23.937 102.832 24.3994C102.386 24.8127 102.162 25.3164 102.162 25.9132C102.162 26.574 102.417 27.1205 102.93 27.5501C103.376 27.9471 104.186 28.3767 105.362 28.8403C106.8 29.4195 107.857 30.0966 108.536 30.873C109.214 31.6468 109.552 32.6154 109.552 33.7712Z" fill="white"/>
<path d="M118.406 28.4142H115.454V34.2672C115.454 35.7559 115.974 36.4996 117.017 36.4996C117.495 36.4996 117.892 36.4582 118.206 36.3753L118.281 38.4092C117.753 38.6064 117.058 38.7057 116.198 38.7057C115.14 38.7057 114.313 38.3828 113.716 37.7383C113.122 37.0926 112.823 36.0097 112.823 34.4883V28.4117H111.064V26.4016H112.823V24.1944L115.454 23.4004V26.4016H118.406V28.4142Z" fill="white"/>
<path d="M131.728 32.3328C131.728 34.1858 131.198 35.7072 130.14 36.8969C129.03 38.1218 127.558 38.7323 125.723 38.7323C123.954 38.7323 122.546 38.1456 121.495 36.9723C120.445 35.7989 119.92 34.3177 119.92 32.5326C119.92 30.6645 120.46 29.1343 121.544 27.9446C122.626 26.7537 124.086 26.1582 125.921 26.1582C127.69 26.1582 129.113 26.7449 130.188 27.9195C131.215 29.059 131.728 30.5301 131.728 32.3328ZM128.949 32.4195C128.949 31.3077 128.711 30.3542 128.23 29.559C127.669 28.5966 126.866 28.1167 125.826 28.1167C124.749 28.1167 123.931 28.5979 123.37 29.559C122.889 30.3554 122.651 31.324 122.651 32.4698C122.651 33.5816 122.889 34.5351 123.37 35.3291C123.949 36.2914 124.758 36.7713 125.802 36.7713C126.824 36.7713 127.627 36.2813 128.206 35.3039C128.7 34.4936 128.949 33.5301 128.949 32.4195Z" fill="white"/>
<path d="M140.434 28.7593C140.169 28.7103 139.886 28.6851 139.59 28.6851C138.648 28.6851 137.919 29.0407 137.406 29.753C136.961 30.3811 136.737 31.1751 136.737 32.1336V38.459H134.06L134.085 30.2002C134.085 28.8108 134.051 27.5457 133.984 26.405H136.317L136.415 28.7115H136.489C136.772 27.9188 137.218 27.2806 137.829 26.802C138.425 26.3711 139.07 26.1562 139.765 26.1562C140.012 26.1562 140.236 26.1738 140.434 26.2052V28.7593Z" fill="white"/>
<path d="M152.413 31.8602C152.413 32.3401 152.381 32.7446 152.315 33.075H144.28C144.311 34.266 144.699 35.1768 145.445 35.8049C146.123 36.3665 146.998 36.6479 148.074 36.6479C149.263 36.6479 150.349 36.4582 151.325 36.0775L151.744 37.9368C150.604 38.4343 149.257 38.6818 147.703 38.6818C145.834 38.6818 144.366 38.1316 143.298 37.0323C142.233 35.9331 141.699 34.4569 141.699 32.6052C141.699 30.7873 142.195 29.2735 143.189 28.0662C144.229 26.7773 145.635 26.1328 147.404 26.1328C149.141 26.1328 150.457 26.7773 151.35 28.0662C152.057 29.0901 152.413 30.3564 152.413 31.8602ZM149.859 31.1655C149.876 30.3715 149.702 29.6856 149.339 29.1064C148.875 28.3615 148.163 27.9896 147.204 27.9896C146.329 27.9896 145.616 28.3527 145.072 29.0813C144.626 29.6605 144.361 30.3552 144.28 31.1642H149.859V31.1655Z" fill="white"/>
<path d="M60.5696 11.4541C60.5696 12.9327 60.1262 14.0458 59.2405 14.7933C58.4201 15.483 57.2543 15.8285 55.7442 15.8285C54.9955 15.8285 54.3548 15.7958 53.8184 15.7305V7.65132C54.5181 7.53826 55.2719 7.48047 56.0859 7.48047C57.5244 7.48047 58.6086 7.79328 59.3397 8.41891C60.1588 9.1262 60.5696 10.1375 60.5696 11.4541ZM59.1814 11.4905C59.1814 10.532 58.9277 9.79705 58.4201 9.28449C57.9126 8.77318 57.1714 8.5169 56.1952 8.5169C55.7807 8.5169 55.4277 8.54454 55.1349 8.60233V14.7443C55.297 14.7694 55.5935 14.7807 56.0244 14.7807C57.0319 14.7807 57.8096 14.5006 58.3573 13.9403C58.905 13.38 59.1814 12.5634 59.1814 11.4905Z" fill="white"/>
<path d="M67.9292 12.7475C67.9292 13.6583 67.6691 14.4045 67.149 14.99C66.6038 15.5917 65.8814 15.892 64.9794 15.892C64.1101 15.892 63.4179 15.6043 62.9015 15.0264C62.3864 14.4498 62.1289 13.7224 62.1289 12.8455C62.1289 11.9284 62.394 11.1759 62.9266 10.5917C63.4593 10.0076 64.1754 9.71484 65.0774 9.71484C65.9467 9.71484 66.6452 10.0025 67.1741 10.5792C67.6766 11.1395 67.9292 11.8631 67.9292 12.7475ZM66.5636 12.7902C66.5636 12.2437 66.4455 11.7751 66.2106 11.3844C65.9342 10.9121 65.541 10.6759 65.0297 10.6759C64.5008 10.6759 64.0988 10.9121 63.8224 11.3844C63.5862 11.7751 63.4694 12.2513 63.4694 12.8141C63.4694 13.3606 63.5874 13.8292 63.8224 14.2199C64.1075 14.6922 64.5045 14.9284 65.0171 14.9284C65.5196 14.9284 65.9141 14.6885 66.198 14.2073C66.4417 13.8091 66.5636 13.3367 66.5636 12.7902Z" fill="white"/>
<path d="M77.7991 9.83594L75.9461 15.758H74.7401L73.9725 13.1864C73.7778 12.5445 73.6195 11.9063 73.4964 11.2731H73.4725C73.3582 11.9239 73.1999 12.5608 72.9964 13.1864L72.1811 15.758H70.9612L69.2188 9.83594H70.5718L71.2414 12.6513C71.4034 13.3171 71.5366 13.9515 71.6434 14.552H71.6672C71.7652 14.057 71.9273 13.4264 72.1559 12.6638L72.9964 9.83719H74.0693L74.8745 12.6035C75.0693 13.2781 75.2275 13.9276 75.3494 14.5533H75.3858C75.475 13.944 75.6095 13.2945 75.7878 12.6035L76.5064 9.83719H77.7991V9.83594Z" fill="white"/>
<path d="M84.6245 15.7574H83.308V12.3655C83.308 11.3202 82.911 10.7976 82.1145 10.7976C81.7238 10.7976 81.4085 10.9408 81.1635 11.2285C80.921 11.5162 80.7979 11.8554 80.7979 12.2436V15.7562H79.4813V11.5275C79.4813 11.0074 79.465 10.4433 79.4336 9.8328H80.5906L80.6522 10.7587H80.6886C80.8419 10.471 81.0705 10.2336 81.3708 10.0439C81.7276 9.82275 82.1271 9.71094 82.5642 9.71094C83.117 9.71094 83.5768 9.88933 83.9424 10.2474C84.3972 10.6858 84.6245 11.3403 84.6245 12.2097V15.7574Z" fill="white"/>
<path d="M88.2548 15.7566H86.9395V7.11719H88.2548V15.7566Z" fill="white"/>
<path d="M96.0073 12.7475C96.0073 13.6583 95.7472 14.4045 95.2271 14.99C94.6819 15.5917 93.9583 15.892 93.0575 15.892C92.1869 15.892 91.4947 15.6043 90.9796 15.0264C90.4646 14.4498 90.207 13.7224 90.207 12.8455C90.207 11.9284 90.4721 11.1759 91.0048 10.5917C91.5374 10.0076 92.2535 9.71484 93.1543 9.71484C94.0249 9.71484 94.7221 10.0025 95.2523 10.5792C95.7548 11.1395 96.0073 11.8631 96.0073 12.7475ZM94.6404 12.7902C94.6404 12.2437 94.5224 11.7751 94.2874 11.3844C94.0123 10.9121 93.6178 10.6759 93.1078 10.6759C92.5776 10.6759 92.1756 10.9121 91.9005 11.3844C91.6643 11.7751 91.5475 12.2513 91.5475 12.8141C91.5475 13.3606 91.6656 13.8292 91.9005 14.2199C92.1857 14.6922 92.5827 14.9284 93.0952 14.9284C93.5977 14.9284 93.9909 14.6885 94.2749 14.2073C94.5198 13.8091 94.6404 13.3367 94.6404 12.7902Z" fill="white"/>
<path d="M102.379 15.7576H101.197L101.099 15.0754H101.063C100.658 15.6194 100.082 15.892 99.3329 15.892C98.7739 15.892 98.3216 15.7123 97.9812 15.3555C97.6721 15.0314 97.5176 14.6282 97.5176 14.1495C97.5176 13.4259 97.8191 12.8744 98.4259 12.4925C99.0314 12.1106 99.8832 11.9234 100.98 11.9322V11.8216C100.98 11.0415 100.57 10.652 99.75 10.652C99.1658 10.652 98.6507 10.799 98.206 11.0905L97.9384 10.2261C98.4887 9.8857 99.1683 9.71484 99.9698 9.71484C101.518 9.71484 102.294 10.5314 102.294 12.1646V14.3455C102.294 14.9372 102.323 15.4083 102.379 15.7576ZM101.013 13.7224V12.8091C99.5603 12.7839 98.8342 13.1822 98.8342 14.0025C98.8342 14.3116 98.9171 14.5427 99.0867 14.6973C99.2563 14.8518 99.4724 14.9284 99.7299 14.9284C100.019 14.9284 100.289 14.8367 100.535 14.6545C100.783 14.4711 100.935 14.2387 100.991 13.9535C101.005 13.8895 101.013 13.8116 101.013 13.7224Z" fill="white"/>
<path d="M109.86 15.7566H108.692L108.63 14.8056H108.594C108.221 15.5292 107.585 15.8911 106.692 15.8911C105.978 15.8911 105.384 15.6109 104.913 15.0506C104.442 14.4903 104.207 13.7629 104.207 12.8697C104.207 11.9112 104.462 11.1348 104.975 10.5418C105.471 9.98905 106.079 9.71266 106.803 9.71266C107.598 9.71266 108.154 9.98025 108.471 10.5167H108.496V7.11719H109.814V14.1612C109.814 14.7378 109.829 15.2692 109.86 15.7566ZM108.496 13.2591V12.2717C108.496 12.1009 108.483 11.9627 108.46 11.8571C108.385 11.5406 108.226 11.2742 107.983 11.0594C107.738 10.8446 107.443 10.7365 107.103 10.7365C106.612 10.7365 106.227 10.9313 105.944 11.322C105.664 11.7127 105.522 12.2114 105.522 12.8207C105.522 13.4061 105.657 13.881 105.927 14.2466C106.212 14.636 106.596 14.8308 107.078 14.8308C107.51 14.8308 107.855 14.6687 108.118 14.3433C108.372 14.0431 108.496 13.6813 108.496 13.2591Z" fill="white"/>
<path d="M121.121 12.7475C121.121 13.6583 120.861 14.4045 120.34 14.99C119.795 15.5917 119.074 15.892 118.171 15.892C117.303 15.892 116.611 15.6043 116.093 15.0264C115.578 14.4498 115.32 13.7224 115.32 12.8455C115.32 11.9284 115.585 11.1759 116.118 10.5917C116.651 10.0076 117.367 9.71484 118.27 9.71484C119.138 9.71484 119.838 10.0025 120.366 10.5792C120.868 11.1395 121.121 11.8631 121.121 12.7475ZM119.756 12.7902C119.756 12.2437 119.638 11.7751 119.403 11.3844C119.126 10.9121 118.734 10.6759 118.221 10.6759C117.693 10.6759 117.291 10.9121 117.014 11.3844C116.778 11.7751 116.661 12.2513 116.661 12.8141C116.661 13.3606 116.779 13.8292 117.014 14.2199C117.299 14.6922 117.696 14.9284 118.209 14.9284C118.711 14.9284 119.107 14.6885 119.391 14.2073C119.633 13.8091 119.756 13.3367 119.756 12.7902Z" fill="white"/>
<path d="M128.199 15.7574H126.884V12.3655C126.884 11.3202 126.487 10.7976 125.689 10.7976C125.299 10.7976 124.983 10.9408 124.74 11.2285C124.496 11.5162 124.374 11.8554 124.374 12.2436V15.7562H123.056V11.5275C123.056 11.0074 123.041 10.4433 123.01 9.8328H124.166L124.227 10.7587H124.264C124.418 10.471 124.647 10.2336 124.946 10.0439C125.304 9.82275 125.702 9.71094 126.14 9.71094C126.692 9.71094 127.152 9.88933 127.517 10.2474C127.973 10.6858 128.199 11.3403 128.199 12.2097V15.7574Z" fill="white"/>
<path d="M137.06 10.8204H135.61V13.6973C135.61 14.4285 135.868 14.794 136.378 14.794C136.614 14.794 136.81 14.7739 136.964 14.7325L136.998 15.7312C136.738 15.8292 136.397 15.8782 135.976 15.8782C135.456 15.8782 135.051 15.7199 134.758 15.4033C134.464 15.0868 134.319 14.5541 134.319 13.8066V10.8204H133.453V9.83425H134.319V8.74882L135.609 8.35938V9.83299H137.059V10.8204H137.06Z" fill="white"/>
<path d="M144.03 15.7566H142.712V12.3898C142.712 11.3282 142.315 10.7968 141.52 10.7968C140.909 10.7968 140.492 11.1046 140.264 11.7202C140.225 11.8496 140.202 12.0079 140.202 12.1938V15.7554H138.887V7.11719H140.202V10.6863H140.227C140.642 10.0368 141.236 9.71266 142.006 9.71266C142.551 9.71266 143.002 9.89106 143.36 10.2491C143.806 10.6951 144.03 11.3584 144.03 12.2353V15.7566Z" fill="white"/>
<path d="M151.218 12.5159C151.218 12.7521 151.201 12.9506 151.169 13.1127H147.221C147.238 13.6981 147.427 14.1441 147.792 14.4531C148.126 14.7295 148.557 14.8677 149.085 14.8677C149.669 14.8677 150.202 14.7747 150.682 14.5875L150.888 15.5021C150.326 15.7458 149.665 15.8677 148.9 15.8677C147.983 15.8677 147.261 15.5976 146.738 15.0574C146.213 14.5172 145.953 13.7923 145.953 12.8828C145.953 11.9896 146.196 11.2458 146.684 10.6529C147.194 10.0197 147.884 9.70312 148.755 9.70312C149.606 9.70312 150.253 10.0197 150.691 10.6529C151.044 11.1554 151.218 11.7772 151.218 12.5159ZM149.962 12.1755C149.972 11.7848 149.885 11.4481 149.707 11.1642C149.478 10.7986 149.13 10.6152 148.659 10.6152C148.23 10.6152 147.879 10.7936 147.611 11.1516C147.393 11.4368 147.263 11.7772 147.221 12.1755H149.962Z" fill="white"/>
</svg>
