<svg width="167" height="48" viewBox="0 0 167 48" fill="none" xmlns="http://www.w3.org/2000/svg">
<path fill-rule="evenodd" clip-rule="evenodd" d="M160.813 48H6.18746C2.77729 48 0 45.2948 0 42V6C0 2.69327 2.77729 0 6.18746 0H160.813C164.22 0 167 2.69327 167 6V42C167 45.2948 164.22 48 160.813 48Z" fill="#1B1400"/>
<path d="M87.7198 15.8787C86.6335 15.8787 85.7178 15.4987 84.9936 14.7506C84.2754 14.0234 83.8744 13.0209 83.8923 11.9974C83.8923 10.9052 84.2634 9.98049 84.9936 9.24732C85.7148 8.49919 86.6305 8.11914 87.7168 8.11914C88.7911 8.11914 89.7068 8.49919 90.443 9.24732C91.1731 10.0044 91.5442 10.9291 91.5442 11.9974C91.5322 13.0927 91.1612 14.0174 90.443 14.7476C89.7218 15.5017 88.8061 15.8787 87.7198 15.8787ZM55.3976 15.8787C54.3352 15.8787 53.4135 15.5047 52.6594 14.7655C51.9113 14.0294 51.5312 13.0987 51.5312 12.0004C51.5312 10.9022 51.9113 9.97151 52.6594 9.23535C53.3986 8.4962 54.3203 8.12213 55.3976 8.12213C55.9243 8.12213 56.436 8.22687 56.9268 8.43934C57.4086 8.64582 57.8006 8.92712 58.0908 9.27126L58.1627 9.35804L57.3517 10.1541L57.2679 10.0553C56.8101 9.51066 56.1966 9.24433 55.3856 9.24433C54.6614 9.24433 54.03 9.50168 53.5093 10.0104C52.9856 10.5221 52.7193 11.1925 52.7193 12.0034C52.7193 12.8144 52.9856 13.4847 53.5093 13.9964C54.03 14.5052 54.6614 14.7625 55.3856 14.7625C56.1577 14.7625 56.8071 14.5052 57.3128 13.9964C57.612 13.6972 57.7976 13.2782 57.8634 12.7486H55.2629V11.6294H58.9796L58.9946 11.7311C59.0215 11.9196 59.0485 12.1142 59.0485 12.2937C59.0485 13.3261 58.7372 14.161 58.1208 14.7775C57.4205 15.5077 56.5048 15.8787 55.3976 15.8787ZM98.3731 15.7201H97.227L93.7168 10.1032L93.7467 11.1147V15.7171H92.6006V8.28074H93.9083L93.9442 8.3376L97.245 13.6284L97.215 12.6199V8.28074H98.3731V15.7201ZM79.1073 15.7201H77.9462V9.39994H75.9322V8.28074H81.1183V9.39994H79.1043V15.7201H79.1073ZM74.9866 15.7201H73.8285V8.28074H74.9866V15.7201ZM68.4779 15.7201H67.3198V9.39994H65.3058V8.28074H70.4918V9.39994H68.4779V15.7201ZM64.5726 15.7082H60.1317V8.28074H64.5726V9.39994H61.2928V11.4408H64.2524V12.5481H61.2928V14.589H64.5726V15.7082ZM85.8435 13.9815C86.3612 14.4992 86.9896 14.7595 87.7198 14.7595C88.4709 14.7595 89.0844 14.5052 89.5961 13.9815C90.1048 13.4728 90.3622 12.8054 90.3622 12.0004C90.3622 11.1955 90.1048 10.5251 89.5991 10.0194C89.0814 9.50168 88.4499 9.24134 87.7228 9.24134C86.9716 9.24134 86.3582 9.4957 85.8495 10.0194C85.3407 10.5281 85.0834 11.1955 85.0834 12.0004C85.0834 12.8054 85.3377 13.4757 85.8435 13.9815Z" fill="white"/>
<path fill-rule="evenodd" clip-rule="evenodd" d="M83.7855 26.1073C80.9576 26.1073 78.6653 28.2529 78.6653 31.2125C78.6653 34.1452 80.9725 36.3178 83.7855 36.3178C86.6134 36.3178 88.9057 34.1572 88.9057 31.2125C88.9057 28.2529 86.6134 26.1073 83.7855 26.1073ZM83.7855 34.2948C82.2384 34.2948 80.9067 33.014 80.9067 31.2005C80.9067 29.3602 82.2414 28.1063 83.7855 28.1063C85.3326 28.1063 86.6643 29.3602 86.6643 31.2005C86.6673 33.026 85.3326 34.2948 83.7855 34.2948ZM72.6144 26.1073C69.7865 26.1073 67.4942 28.2529 67.4942 31.2125C67.4942 34.1452 69.8014 36.3178 72.6144 36.3178C75.4423 36.3178 77.7346 34.1572 77.7346 31.2125C77.7346 28.2529 75.4394 26.1073 72.6144 26.1073ZM72.6144 34.2948C71.0673 34.2948 69.7356 33.014 69.7356 31.2005C69.7356 29.3602 71.0703 28.1063 72.6144 28.1063C74.1615 28.1063 75.4932 29.3602 75.4932 31.2005C75.4932 33.026 74.1615 34.2948 72.6144 34.2948ZM59.3216 27.6664V29.827H64.5077C64.3491 31.039 63.9481 31.9337 63.3346 32.5472C62.5745 33.3073 61.4014 34.1332 59.3336 34.1332C56.1466 34.1332 53.6538 31.5597 53.6538 28.3726C53.6538 25.1856 56.1466 22.612 59.3336 22.612C61.0543 22.612 62.3082 23.2913 63.2389 24.1592L64.771 22.627C63.4783 21.3881 61.7576 20.4395 59.3456 20.4395C54.9735 20.4395 51.3047 24.0006 51.3047 28.3607C51.3047 32.7327 54.9705 36.2818 59.3456 36.2818C61.7067 36.2818 63.4783 35.5098 64.8788 34.0554C66.3062 32.628 66.7581 30.614 66.7581 28.9891C66.7581 28.4833 66.7192 28.0285 66.6384 27.6424H59.3187C59.3216 27.6395 59.3216 27.6664 59.3216 27.6664ZM113.693 29.3482C113.265 28.202 111.972 26.0953 109.321 26.0953C106.693 26.0953 104.509 28.1631 104.509 31.2005C104.509 34.0674 106.669 36.3058 109.575 36.3058C111.909 36.3058 113.268 34.8784 113.827 34.0405L112.095 32.8794C111.52 33.7322 110.721 34.2918 109.587 34.2918C108.441 34.2918 107.639 33.7711 107.106 32.7447L113.932 29.9168C113.932 29.9198 113.693 29.3482 113.693 29.3482ZM106.732 31.0539C106.678 29.0818 108.264 28.0794 109.398 28.0794C110.293 28.0794 111.038 28.5193 111.293 29.1597L106.732 31.0539ZM101.187 36.0006H103.428V21.002H101.187V36.0006ZM97.5062 27.2414H97.4254C96.9196 26.64 95.959 26.0953 94.7321 26.0953C92.1855 26.0953 89.8393 28.3367 89.8393 31.2155C89.8393 34.0823 92.1735 36.2968 94.7321 36.2968C95.9441 36.2968 96.9196 35.7492 97.4254 35.1357H97.5062V35.8689C97.5062 37.817 96.4648 38.8674 94.786 38.8674C93.4124 38.8674 92.5595 37.8799 92.2124 37.0539L90.2643 37.8679C90.8239 39.2145 92.3172 40.8813 94.783 40.8813C97.4104 40.8813 99.6369 39.3342 99.6369 35.5607V26.4006H97.5182V27.2414C97.5211 27.2414 97.5062 27.2414 97.5062 27.2414ZM94.9326 34.2948C93.3855 34.2948 92.0927 33.002 92.0927 31.2155C92.0927 29.414 93.3855 28.1093 94.9326 28.1093C96.4648 28.1093 97.6528 29.429 97.6528 31.2155C97.6678 33.002 96.4678 34.2948 94.9326 34.2948ZM124.187 21.002H118.828V36.0006H121.069V30.3208H124.19C126.671 30.3208 129.11 28.5222 129.11 25.6674C129.11 22.8125 126.68 21.002 124.187 21.002ZM124.253 28.226H121.066V23.0789H124.253C125.932 23.0789 126.881 24.4644 126.881 25.6524C126.881 26.8285 125.92 28.226 124.253 28.226ZM138.094 26.0804C136.466 26.0804 134.787 26.8015 134.093 28.3726L136.08 29.1986C136.508 28.3726 137.292 28.0913 138.121 28.0913C139.282 28.0913 140.455 28.7856 140.482 30.0245V30.1831C140.081 29.9557 139.201 29.6085 138.148 29.6085C136.002 29.6085 133.826 30.7816 133.826 32.9811C133.826 34.9951 135.586 36.2878 137.546 36.2878C139.051 36.2878 139.88 35.6085 140.398 34.8215H140.479V35.9826H142.639V30.237C142.639 27.5616 140.652 26.0804 138.094 26.0804ZM137.812 34.2948C137.079 34.2948 136.053 33.9357 136.053 33.014C136.053 31.8529 137.334 31.413 138.426 31.413C139.413 31.413 139.88 31.6255 140.467 31.9188C140.305 33.2654 139.168 34.2828 137.812 34.2948ZM150.522 26.4006L147.948 32.9063H147.867L145.201 26.4006H142.789L146.79 35.4948L144.51 40.5492H146.844L152.999 26.4006H150.522ZM130.346 36.0006H132.587V21.002H130.346V36.0006Z" fill="white"/>
<path opacity="0.2" fill-rule="evenodd" clip-rule="evenodd" d="M32.4394 28.959L15.026 38.8523C14.0534 39.4119 13.1856 39.3729 12.626 38.8642L12.5332 38.957L12.626 39.0378C13.1856 39.5435 14.0534 39.5854 15.026 39.0258L32.5591 29.0667L32.4394 28.959Z" fill="black"/>
<path opacity="0.12" fill-rule="evenodd" clip-rule="evenodd" d="M38.4119 25.5591L32.4238 28.9586L32.5316 29.0663L38.3969 25.7327C39.2378 25.2539 39.6508 24.6254 39.6508 24C39.5999 24.5746 39.172 25.1192 38.4119 25.5591Z" fill="black"/>
<path fill-rule="evenodd" clip-rule="evenodd" d="M14.5476 9.04174C14.2005 9.4158 14 9.98737 14 10.7355V37.2702C14 38.0183 14.2005 38.5899 14.5596 38.949L14.6524 39.0298L29.5192 24.1629V23.8308L14.6404 8.96094L14.5476 9.04174Z" fill="white"/>
<path fill-rule="evenodd" clip-rule="evenodd" d="M34.4664 29.1315L29.5078 24.1729V23.8258L34.4664 18.8672L34.5741 18.933L40.4395 22.2667C42.1183 23.2123 42.1183 24.7744 40.4395 25.732L34.5741 29.0657L34.4664 29.1315Z" fill="white" fill-opacity="0.3"/>
<path fill-rule="evenodd" clip-rule="evenodd" d="M34.5728 29.0663L29.5065 24L14.5469 38.9596C15.0945 39.5461 16.0132 39.612 17.0396 39.0404L34.5728 29.0663Z" fill="white" fill-opacity="0.6"/>
<path fill-rule="evenodd" clip-rule="evenodd" d="M34.5728 18.9349L17.0396 8.9758C16.0132 8.38927 15.0915 8.47006 14.5469 9.0566L29.5065 24.0012L34.5728 18.9349Z" fill="white" fill-opacity="0.6"/>
<path opacity="0.25" fill-rule="evenodd" clip-rule="evenodd" d="M17.0404 9.14873L40.4389 22.4415C41.199 22.8694 41.6269 23.429 41.6928 24.0006C41.6928 23.3752 41.2798 22.7467 40.4389 22.2679L17.0404 8.97517C15.3616 8.01457 14 8.81657 14 10.7348V10.9083C14 8.98714 15.3616 8.20011 17.0404 9.14873Z" fill="white"/>
</svg>
