<svg width="40" height="40" viewBox="0 0 40 40" fill="none" xmlns="http://www.w3.org/2000/svg">
<path d="M21.667 3.3335H10.0003C9.11627 3.3335 8.26842 3.68469 7.6433 4.30981C7.01818 4.93493 6.66699 5.78277 6.66699 6.66683V33.3335C6.66699 34.2176 7.01818 35.0654 7.6433 35.6905C8.26842 36.3156 9.11627 36.6668 10.0003 36.6668H30.0003C30.8844 36.6668 31.7322 36.3156 32.3573 35.6905C32.9825 35.0654 33.3337 34.2176 33.3337 33.3335V15.0002L21.667 3.3335Z" fill="#E4FFDF" stroke="#307410" stroke-width="1.5" stroke-linecap="round" stroke-linejoin="round"/>
<path d="M21.667 3.3335V15.0002H33.3337" stroke="#307410" stroke-width="1.5" stroke-linecap="round" stroke-linejoin="round"/>
<path d="M17.0455 27.5L16.0055 25.91L14.9855 27.5H13.3955L15.1555 24.9L13.4155 22.33H15.0655L16.0855 23.95L17.1155 22.33H18.6755L16.9355 24.94L18.6955 27.5H17.0455Z" fill="#307410"/>
<path d="M20.8836 20.23V27.5H19.4236V20.23H20.8836Z" fill="#307410"/>
<path d="M23.2882 25.97C23.3682 26.3366 23.6682 26.52 24.1882 26.52C24.4282 26.52 24.6148 26.4733 24.7482 26.38C24.8815 26.28 24.9482 26.15 24.9482 25.99C24.9482 25.75 24.7582 25.6033 24.3782 25.55L23.4982 25.45C22.4582 25.3233 21.9382 24.8166 21.9382 23.93C21.9382 23.4233 22.1415 23.01 22.5482 22.69C22.9548 22.37 23.4715 22.21 24.0982 22.21C24.7048 22.21 25.2015 22.3533 25.5882 22.64C25.9815 22.9266 26.2115 23.3233 26.2782 23.83H24.8682C24.7682 23.49 24.4982 23.32 24.0582 23.32C23.8448 23.32 23.6715 23.37 23.5382 23.47C23.4115 23.5633 23.3482 23.68 23.3482 23.82C23.3482 24.0666 23.5282 24.21 23.8882 24.25L24.8082 24.36C25.2882 24.42 25.6682 24.5766 25.9482 24.83C26.2282 25.0833 26.3682 25.44 26.3682 25.9C26.3682 26.44 26.1648 26.8633 25.7582 27.17C25.3515 27.47 24.8282 27.62 24.1882 27.62C23.5615 27.62 23.0315 27.48 22.5982 27.2C22.1648 26.92 21.9215 26.51 21.8682 25.97H23.2882Z" fill="#307410"/>
</svg>
