<svg width="40" height="40" viewBox="0 0 40 40" fill="none" xmlns="http://www.w3.org/2000/svg">
<path d="M21.667 3.3335H10.0003C9.11627 3.3335 8.26842 3.68469 7.6433 4.30981C7.01818 4.93493 6.66699 5.78277 6.66699 6.66683V33.3335C6.66699 34.2176 7.01818 35.0654 7.6433 35.6905C8.26842 36.3156 9.11627 36.6668 10.0003 36.6668H30.0003C30.8844 36.6668 31.7322 36.3156 32.3573 35.6905C32.9825 35.0654 33.3337 34.2176 33.3337 33.3335V15.0002L21.667 3.3335Z" fill="#D8E9FF" stroke="#355E8F" stroke-width="1.5" stroke-linecap="round" stroke-linejoin="round"/>
<path d="M21.667 3.3335V15.0002H33.3337" stroke="#355E8F" stroke-width="1.5" stroke-linecap="round" stroke-linejoin="round"/>
<path d="M13.7712 27.62C13.1312 27.62 12.5979 27.38 12.1713 26.9C11.7446 26.4133 11.5312 25.7533 11.5312 24.92C11.5312 24.0866 11.7479 23.4266 12.1812 22.94C12.6146 22.4533 13.1579 22.21 13.8112 22.21C14.4579 22.21 14.9279 22.42 15.2213 22.84V20.23H16.6813V27.5H15.2812V26.89C14.9679 27.3766 14.4646 27.62 13.7712 27.62ZM14.9412 23.86C14.7346 23.6 14.4613 23.47 14.1212 23.47C13.7812 23.47 13.5079 23.6033 13.3012 23.87C13.0946 24.13 12.9912 24.48 12.9912 24.92C12.9912 25.3533 13.0946 25.7033 13.3012 25.97C13.5079 26.23 13.7812 26.36 14.1212 26.36C14.4613 26.36 14.7346 26.23 14.9412 25.97C15.1479 25.71 15.2512 25.3666 15.2512 24.94V24.9C15.2512 24.46 15.1479 24.1133 14.9412 23.86Z" fill="#355E8F"/>
<path d="M20.2741 22.21C21.0407 22.21 21.6641 22.46 22.1441 22.96C22.6307 23.4533 22.8741 24.1066 22.8741 24.92C22.8741 25.7333 22.6307 26.3866 22.1441 26.88C21.6641 27.3733 21.0407 27.62 20.2741 27.62C19.5007 27.62 18.8707 27.3733 18.3841 26.88C17.9041 26.3866 17.6641 25.7333 17.6641 24.92C17.6641 24.1066 17.9041 23.4533 18.3841 22.96C18.8707 22.46 19.5007 22.21 20.2741 22.21ZM20.2741 26.36C20.6207 26.36 20.8974 26.2266 21.1041 25.96C21.3107 25.6933 21.4141 25.3466 21.4141 24.92C21.4141 24.4866 21.3107 24.1366 21.1041 23.87C20.9041 23.6033 20.6274 23.47 20.2741 23.47C19.9207 23.47 19.6407 23.6033 19.4341 23.87C19.2274 24.1366 19.1241 24.4866 19.1241 24.92C19.1241 25.3466 19.2274 25.6933 19.4341 25.96C19.6407 26.2266 19.9207 26.36 20.2741 26.36Z" fill="#355E8F"/>
<path d="M26.1523 26.36C26.6656 26.36 26.9856 26.12 27.1123 25.64H28.5023C28.4556 26.2133 28.2189 26.6866 27.7923 27.06C27.3656 27.4333 26.8156 27.62 26.1423 27.62C25.3623 27.62 24.7389 27.37 24.2723 26.87C23.8056 26.3633 23.5723 25.7133 23.5723 24.92C23.5723 24.1333 23.8056 23.4866 24.2723 22.98C24.7389 22.4666 25.3623 22.21 26.1423 22.21C26.8223 22.21 27.3689 22.4 27.7823 22.78C28.1956 23.16 28.4323 23.6266 28.4923 24.18H27.0923C26.9456 23.7066 26.6289 23.47 26.1423 23.47C25.8023 23.47 25.5323 23.6033 25.3323 23.87C25.1323 24.13 25.0323 24.48 25.0323 24.92C25.0323 25.36 25.1323 25.71 25.3323 25.97C25.5389 26.23 25.8123 26.36 26.1523 26.36Z" fill="#355E8F"/>
</svg>
