<svg width="40" height="40" viewBox="0 0 40 40" fill="none" xmlns="http://www.w3.org/2000/svg">
<path d="M21.667 3.3335H10.0003C9.11627 3.3335 8.26842 3.68469 7.6433 4.30981C7.01818 4.93493 6.66699 5.78277 6.66699 6.66683V33.3335C6.66699 34.2176 7.01818 35.0654 7.6433 35.6905C8.26842 36.3156 9.11627 36.6668 10.0003 36.6668H30.0003C30.8844 36.6668 31.7322 36.3156 32.3573 35.6905C32.9825 35.0654 33.3337 34.2176 33.3337 33.3335V15.0002L21.667 3.3335Z" fill="#FAE7FF" stroke="#830B0B" stroke-width="1.5" stroke-linecap="round" stroke-linejoin="round"/>
<path d="M21.667 3.3335V15.0002H33.3337" stroke="#830B0B" stroke-width="1.5" stroke-linecap="round" stroke-linejoin="round"/>
<path d="M15.5955 22.21C16.2355 22.21 16.7689 22.4533 17.1955 22.94C17.6222 23.42 17.8355 24.08 17.8355 24.92C17.8355 25.7466 17.6189 26.4033 17.1855 26.89C16.7522 27.3766 16.2089 27.62 15.5555 27.62C14.9022 27.62 14.4322 27.4133 14.1455 27V29.41H12.6855V22.33H14.0855V22.93C14.4055 22.45 14.9089 22.21 15.5955 22.21ZM14.4255 25.98C14.6322 26.2333 14.9055 26.36 15.2455 26.36C15.5855 26.36 15.8555 26.23 16.0555 25.97C16.2622 25.71 16.3655 25.36 16.3655 24.92C16.3655 24.48 16.2622 24.13 16.0555 23.87C15.8555 23.6033 15.5855 23.47 15.2455 23.47C14.9055 23.47 14.6322 23.6 14.4255 23.86C14.2189 24.12 14.1155 24.4666 14.1155 24.9V24.94C14.1155 25.3733 14.2189 25.72 14.4255 25.98Z" fill="#830B0B"/>
<path d="M20.7784 27.62C20.1384 27.62 19.605 27.38 19.1784 26.9C18.7517 26.4133 18.5384 25.7533 18.5384 24.92C18.5384 24.0866 18.755 23.4266 19.1884 22.94C19.6217 22.4533 20.165 22.21 20.8184 22.21C21.465 22.21 21.935 22.42 22.2284 22.84V20.23H23.6884V27.5H22.2884V26.89C21.975 27.3766 21.4717 27.62 20.7784 27.62ZM21.9484 23.86C21.7417 23.6 21.4684 23.47 21.1284 23.47C20.7884 23.47 20.515 23.6033 20.3084 23.87C20.1017 24.13 19.9984 24.48 19.9984 24.92C19.9984 25.3533 20.1017 25.7033 20.3084 25.97C20.515 26.23 20.7884 26.36 21.1284 26.36C21.4684 26.36 21.7417 26.23 21.9484 25.97C22.155 25.71 22.2584 25.3666 22.2584 24.94V24.9C22.2584 24.46 22.155 24.1133 21.9484 23.86Z" fill="#830B0B"/>
<path d="M26.7412 27.5H25.2812V23.52H24.4812V22.33H25.2812V21.99C25.2812 20.8166 25.9245 20.23 27.2112 20.23H27.6812V21.39H27.4212C26.9478 21.39 26.7112 21.6066 26.7112 22.04V22.33H27.6812V23.52H26.7412V27.5Z" fill="#830B0B"/>
</svg>
